<?xml version="1.0" standalone="no"?>
<!DOCTYPE svg PUBLIC "-//W3C//DTD SVG 20010904//EN"
 "http://www.w3.org/TR/2001/REC-SVG-20010904/DTD/svg10.dtd">
<svg version="1.0" xmlns="http://www.w3.org/2000/svg"
 width="600.000000pt" height="600.000000pt" viewBox="0 0 600.000000 600.000000"
 preserveAspectRatio="xMidYMid meet">
<style>
  g {
    fill: var(--ifm-color-text);
  }
</style>

<g transform="translate(0.000000,600.000000) scale(0.100000,-0.100000)"
stroke="none">
<path d="M2023 4467 c-48 -52 -197 -207 -330 -345 l-243 -250 0 -1216 0 -1216
1228 2 1227 3 95 33 c305 106 504 352 541 669 31 258 -80 528 -284 693 -64 52
-183 118 -249 140 l-38 12 0 784 0 784 -929 0 -929 0 -89 -93z m1827 -734 l0
-718 -113 -1 c-130 -1 -205 -18 -322 -73 -88 -41 -214 -136 -258 -194 l-28
-37 -585 0 -584 0 0 -55 0 -55 545 0 c300 0 545 -2 545 -5 0 -3 -11 -33 -25
-66 -28 -66 -52 -175 -58 -259 l-3 -55 -502 -3 -502 -2 0 -55 0 -55 508 0 507
0 17 -69 c42 -174 169 -354 328 -463 24 -16 -25 -17 -862 -17 l-888 -1 0 1125
0 1125 315 0 315 0 0 325 0 325 825 0 825 0 0 -717z m-1773 180 c-2 -2 -99 -2
-215 -1 l-212 3 213 221 212 221 3 -220 c1 -121 1 -222 -1 -224z m1879 -1037
c109 -35 196 -88 279 -171 80 -80 125 -151 163 -257 24 -67 27 -86 27 -218 0
-132 -3 -151 -27 -218 -39 -108 -83 -177 -169 -263 -174 -177 -436 -241 -674
-165 -276 88 -459 325 -473 612 -6 130 14 225 73 342 146 292 490 436 801 338z"/>
<path d="M2240 3635 l0 -55 470 0 470 0 0 55 0 55 -470 0 -470 0 0 -55z"/>
<path d="M1960 3145 l0 -55 750 0 750 0 0 55 0 55 -750 0 -750 0 0 -55z"/>
<path d="M3357 2385 l-138 -155 108 -122 c59 -67 122 -137 140 -157 l32 -36
37 37 37 37 -83 93 c-46 51 -95 105 -108 120 l-25 27 108 121 108 121 -34 35
c-18 19 -36 34 -39 34 -3 0 -68 -70 -143 -155z"/>
<path d="M3971 2506 l-33 -34 103 -117 c57 -63 105 -119 106 -123 2 -4 -45
-61 -102 -126 l-106 -119 33 -34 c17 -18 35 -33 39 -33 9 0 274 299 274 309 0
10 -266 311 -275 311 -3 0 -21 -15 -39 -34z"/>
<path d="M3720 2265 l-155 -155 35 -35 35 -35 155 155 155 155 -35 35 -35 35
-155 -155z"/>
</g>
</svg>
